<svg version="1.1" xmlns="http://www.w3.org/2000/svg" width="400" height="400"><defs><clipPath id="dJOTZfZTBOOO"><path fill="none" stroke="none" d="M 0.5 0.5 L 400.5 0.5 L 400.5 400.5 L 0.5 400.5 L 0.5 0.5 Z M 5.5 5.5 L 395.5 5.5 L 395.5 395.5 L 5.5 395.5 L 5.5 5.5 Z" clip-rule="evenodd"/></clipPath><clipPath id="cmkuefrwLGUn"><path fill="none" stroke="none" d="M 5.5 5.5 L 395.5 5.5 L 395.5 395.5 L 5.5 395.5 L 5.5 5.5 Z"/></clipPath><clipPath id="oDpcPRFpTSmE"><path fill="none" stroke="none" d="M 5.5 5.5 L 395.5 5.5 L 395.5 395.5 L 5.5 395.5 L 5.5 5.5 Z"/></clipPath><clipPath id="qnxTALGWRQRH"><path fill="none" stroke="none" d="M 5.5 5.5 L 395.5 5.5 L 395.5 395.5 L 5.5 395.5 L 5.5 5.5 Z"/></clipPath><clipPath id="ppRekrgJGFPJ"><path fill="none" stroke="none" d="M 5.5 5.5 L 395.5 5.5 L 395.5 395.5 L 5.5 395.5 L 5.5 5.5 Z"/></clipPath></defs><path fill="#ffffff" stroke="none" paint-order="stroke" d="M 0.5 0.5 L 400.5 0.5 L 400.5 400.5 L 0.5 400.5 L 0.5 0.5 Z" clip-path="url(#dJOTZfZTBOOO)"/><path fill="#ffffff" stroke="none" paint-order="stroke" d="M 5.5 5.5 L 395.5 5.5 L 395.5 395.5 L 5.5 395.5 L 5.5 5.5 Z"/><path fill="rgb(0 165 255)" stroke="rgb(255 255 255)" paint-order="fill" d="M 254.5268480127256 235.07970189795253 L 254.5268480127256 235.07970189795253 A 56.80718994140625 56.80718994140625 0 0 0 233.89042726640355 171.56733139004626 L 288.8427677217592 95.93191932819444 L 288.8427677217592 95.93191932819444 A 150.29769897460938 150.29769897460938 0 0 1 343.44160558793857 263.9698587792943 Z" clip-path="url(#cmkuefrwLGUn)" stroke-linejoin="bevel" stroke-miterlimit="10"/><path fill="rgb(0 165 255)" stroke="rgb(255 255 255)" paint-order="fill" d="M 200.49999751687878 274.3325042724609 L 200.49999751687878 274.3325042724609 A 56.80718994140625 56.80718994140625 0 0 0 254.52684801272557 235.0797018979525 L 343.44160558793857 263.9698587792943 L 343.44160558793857 263.9698587792943 A 150.29769897460938 150.29769897460938 0 0 1 200.49999343027866 367.82301330566395 Z" clip-path="url(#cmkuefrwLGUn)" stroke-linejoin="bevel" stroke-miterlimit="10"/><path fill="rgb(0 165 255)" stroke="rgb(255 255 255)" paint-order="fill" d="M 146.47315254526717 235.07970361527742 L 146.47315254526717 235.07970361527742 A 56.80718994140625 56.80718994140625 0 0 0 200.49999751687878 274.3325042724609 L 200.4999934302787 367.82301330566395 L 200.4999934302787 367.82301330566395 A 150.29769897460938 150.29769897460938 0 0 1 57.55839588837151 263.9698633229091 Z" clip-path="url(#cmkuefrwLGUn)" stroke-linejoin="bevel" stroke-miterlimit="10"/><path fill="rgb(0 165 255)" stroke="rgb(255 255 255)" paint-order="fill" d="M 167.1095822299903 171.56732449051415 L 167.1095822299903 171.56732449051415 A 56.80718994140625 56.80718994140625 0 0 0 146.47315254526717 235.07970361527742 L 57.55839588837151 263.9698633229091 L 57.55839588837151 263.9698633229091 A 150.29769897460938 150.29769897460938 0 0 1 112.15725740333755 95.93190107374818 Z" clip-path="url(#cmkuefrwLGUn)" stroke-linejoin="bevel" stroke-miterlimit="10"/><path fill="rgb(0 165 255)" stroke="rgb(255 255 255)" paint-order="fill" d="M 233.89041886609675 171.56732528686763 L 233.89041886609675 171.56732528686763 A 56.80718994140625 56.80718994140625 0 0 0 167.1095822299903 171.56732449051415 L 112.15725740333754 95.93190107374815 L 112.15725740333754 95.93190107374815 A 150.29769897460938 150.29769897460938 0 0 1 288.8427454966362 95.93190318070143 Z" clip-path="url(#cmkuefrwLGUn)" stroke-linejoin="bevel" stroke-miterlimit="10"/><path fill="none" stroke="rgb(255 255 255)" paint-order="fill" d="M 340.88694763183594 217.5253143310547 A 140.38694763183594 140.38694763183594 0 0 1 60.11305236816406 217.52531433105472 A 140.38694763183594 140.38694763183594 0 0 1 340.88694763183594 217.5253143310547" stroke-linejoin="bevel" stroke-miterlimit="10" clip-path="url(#oDpcPRFpTSmE)"/><path fill="none" stroke="rgb(255 255 255)" paint-order="fill" d="M 331.52781677246094 217.5253143310547 A 131.02781677246094 131.02781677246094 0 0 1 69.47218322753906 217.52531433105472 A 131.02781677246094 131.02781677246094 0 0 1 331.52781677246094 217.5253143310547" stroke-linejoin="bevel" stroke-miterlimit="10" clip-path="url(#oDpcPRFpTSmE)"/><path fill="none" stroke="rgb(255 255 255)" paint-order="fill" d="M 322.16868591308594 217.5253143310547 A 121.66868591308594 121.66868591308594 0 0 1 78.83131408691406 217.52531433105472 A 121.66868591308594 121.66868591308594 0 0 1 322.16868591308594 217.5253143310547" stroke-linejoin="bevel" stroke-miterlimit="10" clip-path="url(#oDpcPRFpTSmE)"/><path fill="none" stroke="rgb(255 255 255)" paint-order="fill" d="M 312.80955505371094 217.5253143310547 A 112.30955505371094 112.30955505371094 0 0 1 88.19044494628906 217.5253143310547 A 112.30955505371094 112.30955505371094 0 0 1 312.80955505371094 217.5253143310547" stroke-linejoin="bevel" stroke-miterlimit="10" clip-path="url(#oDpcPRFpTSmE)"/><path fill="none" stroke="rgb(255 255 255)" paint-order="fill" d="M 303.45042419433594 217.5253143310547 A 102.95042419433594 102.95042419433594 0 0 1 97.54957580566406 217.5253143310547 A 102.95042419433594 102.95042419433594 0 0 1 303.45042419433594 217.5253143310547" stroke-linejoin="bevel" stroke-miterlimit="10" clip-path="url(#oDpcPRFpTSmE)"/><path fill="none" stroke="rgb(255 255 255)" paint-order="fill" d="M 294.09129333496094 217.5253143310547 A 93.59129333496094 93.59129333496094 0 0 1 106.90870666503906 217.5253143310547 A 93.59129333496094 93.59129333496094 0 0 1 294.09129333496094 217.5253143310547" stroke-linejoin="bevel" stroke-miterlimit="10" clip-path="url(#oDpcPRFpTSmE)"/><path fill="none" stroke="rgb(255 255 255)" paint-order="fill" d="M 284.73217010498047 217.5253143310547 A 84.23217010498047 84.23217010498047 0 0 1 116.26782989501953 217.5253143310547 A 84.23217010498047 84.23217010498047 0 0 1 284.73217010498047 217.5253143310547" stroke-linejoin="bevel" stroke-miterlimit="10" clip-path="url(#oDpcPRFpTSmE)"/><path fill="none" stroke="rgb(255 255 255)" paint-order="fill" d="M 275.37303924560547 217.5253143310547 A 74.87303924560547 74.87303924560547 0 0 1 125.62696075439453 217.5253143310547 A 74.87303924560547 74.87303924560547 0 0 1 275.37303924560547 217.5253143310547" stroke-linejoin="bevel" stroke-miterlimit="10" clip-path="url(#oDpcPRFpTSmE)"/><path fill="none" stroke="rgb(255 255 255)" paint-order="fill" d="M 266.01390838623047 217.5253143310547 A 65.51390838623047 65.51390838623047 0 0 1 134.98609161376953 217.5253143310547 A 65.51390838623047 65.51390838623047 0 0 1 266.01390838623047 217.5253143310547" stroke-linejoin="bevel" stroke-miterlimit="10" clip-path="url(#oDpcPRFpTSmE)"/><path fill="none" stroke="rgb(255 255 255)" paint-order="fill" d="M 256.65477752685547 217.5253143310547 A 56.15477752685547 56.15477752685547 0 0 1 144.34522247314453 217.5253143310547 A 56.15477752685547 56.15477752685547 0 0 1 256.65477752685547 217.5253143310547" stroke-linejoin="bevel" stroke-miterlimit="10" clip-path="url(#oDpcPRFpTSmE)"/><path fill="rgb(13 51 98)" stroke="rgb(255 255 255)" paint-order="fill" d="M 293.57859040894493 227.30826866982997 L 293.57859040894493 227.30826866982997 A 93.59129333496094 93.59129333496094 0 0 0 270.05188407415187 154.90051405315805 L 242.71596847948572 179.51388401887 L 242.71596847948572 179.51388401887 A 56.80718994140625 56.80718994140625 0 0 1 256.9959941937691 223.46328276281815 Z" clip-path="url(#qnxTALGWRQRH)" stroke-linejoin="bevel" stroke-miterlimit="10"/><path fill="rgb(13 51 98)" stroke="rgb(255 255 255)" paint-order="fill" d="M 214.1211050370191 281.6075871497515 L 214.1211050370191 281.6075871497515 A 65.51390838623047 65.51390838623047 0 0 0 257.23670848639796 250.28226935085004 L 249.6964691930121 245.92891001857316 L 249.6964691930121 245.92891001857316 A 56.80718994140625 56.80718994140625 0 0 1 212.31087680631217 273.0911313241047 Z" clip-path="url(#qnxTALGWRQRH)" stroke-linejoin="bevel" stroke-miterlimit="10"/><path fill="rgb(13 51 98)" stroke="rgb(255 255 255)" paint-order="fill" d="M 143.76329255483134 250.28227115431196 L 143.76329255483134 250.28227115431196 A 65.51390838623047 65.51390838623047 0 0 0 186.8788893607305 281.6075859589564 L 188.68911833596968 273.0911302915648 L 188.68911833596968 273.0911302915648 A 56.80718994140625 56.80718994140625 0 0 1 151.3035317098391 245.9289115823572 Z" clip-path="url(#qnxTALGWRQRH)" stroke-linejoin="bevel" stroke-miterlimit="10"/><path fill="rgb(13 51 98)" stroke="rgb(255 255 255)" paint-order="fill" d="M 151.813677486759 173.68795364207068 L 151.813677486759 173.68795364207068 A 65.51390838623047 65.51390838623047 0 0 0 135.3449838963748 224.3733847582435 L 144.00400599497826 223.4632845586286 L 144.00400599497826 223.4632845586286 A 56.80718994140625 56.80718994140625 0 0 1 158.2840303122636 179.51388536076828 Z" clip-path="url(#qnxTALGWRQRH)" stroke-linejoin="bevel" stroke-miterlimit="10"/><path fill="rgb(13 51 98)" stroke="rgb(255 255 255)" paint-order="fill" d="M 227.14690858312719 157.67538154076777 L 227.14690858312719 157.67538154076777 A 65.51390838623047 65.51390838623047 0 0 0 173.8530928442794 157.6753809052454 L 177.39443427459764 165.6293639924385 L 177.39443427459764 165.6293639924385 A 56.80718994140625 56.80718994140625 0 0 1 223.60556696310837 165.6293645435007 Z" clip-path="url(#qnxTALGWRQRH)" stroke-linejoin="bevel" stroke-miterlimit="10"/><g clip-path="url(#ppRekrgJGFPJ)"><text fill="rgb(0 0 0)" stroke="none" font-family="helvetica" font-size="10px" font-style="normal" font-weight="normal" text-decoration="normal" x="0" y="9" text-anchor="start" dominant-baseline="alphabetic" transform="matrix(1, 0, 0, 1, 332.4065246582031, 156.93023681640625)">Сотрудничество</text></g><g clip-path="url(#ppRekrgJGFPJ)"><text fill="none" stroke="rgb(0 0 0 / 0)" font-family="helvetica" font-size="10px" font-style="normal" font-weight="normal" text-decoration="normal" x="0" y="9" text-anchor="start" dominant-baseline="alphabetic" transform="matrix(1, 0, 0, 1, 332.4065246582031, 156.93023681640625)" stroke-miterlimit="10" stroke-dasharray="">Сотрудничество</text></g><g clip-path="url(#ppRekrgJGFPJ)"><text fill="rgb(0 0 0)" stroke="none" font-family="helvetica" font-size="10px" font-style="normal" font-weight="normal" text-decoration="normal" x="0" y="9" text-anchor="start" dominant-baseline="alphabetic" transform="matrix(1, 0, 0, 1, 282.79705810546875, 349.6661128997803)">Принятие</text></g><g clip-path="url(#ppRekrgJGFPJ)"><text fill="none" stroke="rgb(0 0 0 / 0)" font-family="helvetica" font-size="10px" font-style="normal" font-weight="normal" text-decoration="normal" x="0" y="9" text-anchor="start" dominant-baseline="alphabetic" transform="matrix(1, 0, 0, 1, 282.79705810546875, 349.6661128997803)" stroke-miterlimit="10" stroke-dasharray="">Принятие</text></g><g clip-path="url(#ppRekrgJGFPJ)"><text fill="rgb(0 0 0)" stroke="none" font-family="helvetica" font-size="10px" font-style="normal" font-weight="normal" text-decoration="normal" x="1.79931640625" y="22.2" text-anchor="start" dominant-baseline="alphabetic" transform="matrix(1, 0, 0, 1, 282.79705810546875, 349.6661128997803)">решений</text></g><g clip-path="url(#ppRekrgJGFPJ)"><text fill="none" stroke="rgb(0 0 0 / 0)" font-family="helvetica" font-size="10px" font-style="normal" font-weight="normal" text-decoration="normal" x="1.79931640625" y="22.2" text-anchor="start" dominant-baseline="alphabetic" transform="matrix(1, 0, 0, 1, 282.79705810546875, 349.6661128997803)" stroke-miterlimit="10" stroke-dasharray="">решений</text></g><g clip-path="url(#ppRekrgJGFPJ)"><text fill="rgb(0 0 0)" stroke="none" font-family="helvetica" font-size="10px" font-style="normal" font-weight="normal" text-decoration="normal" x="0" y="9" text-anchor="start" dominant-baseline="alphabetic" transform="matrix(1, 0, 0, 1, 67.90752410888672, 349.6661128997803)">Управление</text></g><g clip-path="url(#ppRekrgJGFPJ)"><text fill="none" stroke="rgb(0 0 0 / 0)" font-family="helvetica" font-size="10px" font-style="normal" font-weight="normal" text-decoration="normal" x="0" y="9" text-anchor="start" dominant-baseline="alphabetic" transform="matrix(1, 0, 0, 1, 67.90752410888672, 349.6661128997803)" stroke-miterlimit="10" stroke-dasharray="">Управление</text></g><g clip-path="url(#ppRekrgJGFPJ)"><text fill="rgb(0 0 0)" stroke="none" font-family="helvetica" font-size="10px" font-style="normal" font-weight="normal" text-decoration="normal" x="14.02099609375" y="22.2" text-anchor="start" dominant-baseline="alphabetic" transform="matrix(1, 0, 0, 1, 67.90752410888672, 349.6661128997803)">собой</text></g><g clip-path="url(#ppRekrgJGFPJ)"><text fill="none" stroke="rgb(0 0 0 / 0)" font-family="helvetica" font-size="10px" font-style="normal" font-weight="normal" text-decoration="normal" x="14.02099609375" y="22.2" text-anchor="start" dominant-baseline="alphabetic" transform="matrix(1, 0, 0, 1, 67.90752410888672, 349.6661128997803)" stroke-miterlimit="10" stroke-dasharray="">собой</text></g><g clip-path="url(#ppRekrgJGFPJ)"><text fill="rgb(0 0 0)" stroke="none" font-family="helvetica" font-size="10px" font-style="normal" font-weight="normal" text-decoration="normal" x="0" y="9" text-anchor="start" dominant-baseline="alphabetic" transform="matrix(1, 0, 0, 1, -1.9729328155517578, 150.33023643493652)">Эффективное</text></g><g clip-path="url(#ppRekrgJGFPJ)"><text fill="none" stroke="rgb(0 0 0 / 0)" font-family="helvetica" font-size="10px" font-style="normal" font-weight="normal" text-decoration="normal" x="0" y="9" text-anchor="start" dominant-baseline="alphabetic" transform="matrix(1, 0, 0, 1, -1.9729328155517578, 150.33023643493652)" stroke-miterlimit="10" stroke-dasharray="">Эффективное</text></g><g clip-path="url(#ppRekrgJGFPJ)"><text fill="rgb(0 0 0)" stroke="none" font-family="helvetica" font-size="10px" font-style="normal" font-weight="normal" text-decoration="normal" x="5.56396484375" y="22.2" text-anchor="start" dominant-baseline="alphabetic" transform="matrix(1, 0, 0, 1, -1.9729328155517578, 150.33023643493652)">управление</text></g><g clip-path="url(#ppRekrgJGFPJ)"><text fill="none" stroke="rgb(0 0 0 / 0)" font-family="helvetica" font-size="10px" font-style="normal" font-weight="normal" text-decoration="normal" x="5.56396484375" y="22.2" text-anchor="start" dominant-baseline="alphabetic" transform="matrix(1, 0, 0, 1, -1.9729328155517578, 150.33023643493652)" stroke-miterlimit="10" stroke-dasharray="">управление</text></g><g clip-path="url(#ppRekrgJGFPJ)"><text fill="rgb(0 0 0)" stroke="none" font-family="helvetica" font-size="10px" font-style="normal" font-weight="normal" text-decoration="normal" x="0" y="9" text-anchor="start" dominant-baseline="alphabetic" transform="matrix(1, 0, 0, 1, 166.77197265625, 27.133893966674805)">Переговорные</text></g><g clip-path="url(#ppRekrgJGFPJ)"><text fill="none" stroke="rgb(0 0 0 / 0)" font-family="helvetica" font-size="10px" font-style="normal" font-weight="normal" text-decoration="normal" x="0" y="9" text-anchor="start" dominant-baseline="alphabetic" transform="matrix(1, 0, 0, 1, 166.77197265625, 27.133893966674805)" stroke-miterlimit="10" stroke-dasharray="">Переговорные</text></g><g clip-path="url(#ppRekrgJGFPJ)"><text fill="rgb(0 0 0)" stroke="none" font-family="helvetica" font-size="10px" font-style="normal" font-weight="normal" text-decoration="normal" x="16.95556640625" y="22.2" text-anchor="start" dominant-baseline="alphabetic" transform="matrix(1, 0, 0, 1, 166.77197265625, 27.133893966674805)">навыки</text></g><g clip-path="url(#ppRekrgJGFPJ)"><text fill="none" stroke="rgb(0 0 0 / 0)" font-family="helvetica" font-size="10px" font-style="normal" font-weight="normal" text-decoration="normal" x="16.95556640625" y="22.2" text-anchor="start" dominant-baseline="alphabetic" transform="matrix(1, 0, 0, 1, 166.77197265625, 27.133893966674805)" stroke-miterlimit="10" stroke-dasharray="">навыки</text></g></svg>